<?xml version="1.0" encoding="UTF-8" standalone="no"?>
<!-- Uploaded to: SVG Repo, www.svgrepo.com, Generator: SVG Repo Mixer Tools -->

<svg
   fill="#000000"
   version="1.1"
   id="Layer_1"
   width="32"
   height="32"
   viewBox="924 796 8 8"
   enable-background="new 924 796 200 200"
   xml:space="preserve"
   sodipodi:docname="cogs-svgrepo-com.svg"
   inkscape:version="1.3.2 (091e20e, 2023-11-25, custom)"
   xmlns:inkscape="http://www.inkscape.org/namespaces/inkscape"
   xmlns:sodipodi="http://sodipodi.sourceforge.net/DTD/sodipodi-0.dtd"
   xmlns="http://www.w3.org/2000/svg"
   xmlns:svg="http://www.w3.org/2000/svg"><defs
   id="defs2" /><sodipodi:namedview
   id="namedview2"
   pagecolor="#ffffff"
   bordercolor="#666666"
   borderopacity="1.0"
   inkscape:showpageshadow="2"
   inkscape:pageopacity="0.0"
   inkscape:pagecheckerboard="0"
   inkscape:deskcolor="#d1d1d1"
   inkscape:zoom="25.936677"
   inkscape:cx="34.025176"
   inkscape:cy="30.420242"
   inkscape:window-width="3840"
   inkscape:window-height="2054"
   inkscape:window-x="2869"
   inkscape:window-y="-11"
   inkscape:window-maximized="1"
   inkscape:current-layer="Layer_1" />
<g
   id="g2"
   transform="matrix(0.03199936,0,0,0.03199936,895.23272,771.32858)"
   style="fill:#ff0000;fill-opacity:1">
	<path
   d="m 1049.078,903.431 h -3.447 c -3.104,0 -5.875,-1.963 -6.904,-4.891 -0.626,-1.793 -1.354,-3.536 -2.176,-5.227 -1.361,-2.806 -0.799,-6.167 1.404,-8.369 l 2.381,-2.382 c 4.029,-4.028 4.029,-10.556 0,-14.583 l -1.717,-1.717 c -4.025,-4.024 -10.557,-4.028 -14.58,0 l -2.436,2.433 c -2.193,2.196 -5.538,2.769 -8.336,1.425 -1.696,-0.811 -3.442,-1.532 -5.236,-2.155 -2.948,-1.017 -4.928,-3.795 -4.928,-6.91 v -3.37 c 0,-5.693 -4.618,-10.31 -10.309,-10.31 h -2.43 c -5.695,0 -10.312,4.616 -10.312,10.31 v 3.444 c 0,3.107 -1.962,5.877 -4.892,6.906 -1.792,0.627 -3.534,1.354 -5.224,2.176 -2.803,1.361 -6.166,0.796 -8.371,-1.406 l -2.377,-2.382 c -4.03,-4.028 -10.558,-4.028 -14.584,0 l -1.719,1.717 c -4.026,4.028 -4.028,10.555 0,14.583 l 2.434,2.432 c 2.193,2.197 2.765,5.54 1.421,8.341 -0.812,1.691 -1.532,3.44 -2.15,5.234 -1.021,2.945 -3.798,4.926 -6.915,4.926 h -3.367 c -5.695,0 -10.312,4.617 -10.312,10.313 v 2.429 c 0,5.693 4.617,10.31 10.312,10.31 h 3.441 c 3.106,0 5.876,1.963 6.903,4.893 0.63,1.791 1.358,3.537 2.18,5.227 1.361,2.804 0.795,6.164 -1.408,8.367 l -2.379,2.383 c -4.029,4.027 -4.027,10.555 0,14.582 l 1.718,1.718 c 4.025,4.023 10.553,4.026 14.58,-0.003 l 2.431,-2.432 c 2.195,-2.194 5.54,-2.768 8.341,-1.424 1.694,0.813 3.441,1.533 5.236,2.155 2.946,1.018 4.927,3.795 4.927,6.913 v 3.364 c -0.004,5.699 4.614,10.313 10.311,10.313 h 2.427 c 5.696,0 10.314,-4.614 10.311,-10.309 v -3.445 c 0,-3.104 1.962,-5.875 4.892,-6.905 1.792,-0.628 3.537,-1.354 5.229,-2.175 2.801,-1.362 6.165,-0.798 8.368,1.404 l 2.379,2.38 c 4.027,4.029 10.555,4.025 14.583,0.002 l 1.717,-1.718 c 4.027,-4.026 4.03,-10.557 0,-14.581 l -2.432,-2.433 c -2.197,-2.193 -2.768,-5.54 -1.426,-8.337 0.814,-1.696 1.533,-3.445 2.154,-5.24 1.021,-2.947 3.795,-4.926 6.914,-4.926 h 3.367 c 5.695,0.002 10.31,-4.616 10.31,-10.312 v -2.429 c 10e-4,-5.691 -4.613,-10.313 -10.306,-10.309 z m -57.384,36.716 c -13.852,0 -25.081,-11.227 -25.081,-25.078 0,-13.853 11.229,-25.08 25.081,-25.08 13.85,0 25.079,11.228 25.079,25.08 -10e-4,13.852 -11.229,25.078 -25.079,25.078 z"
   id="path1"
   style="fill:#ff0000;fill-opacity:1" />
	<path
   d="m 1117.307,845.487 h -1.727 c -2.557,0 -4.847,-1.583 -5.752,-3.974 -0.229,-0.609 -0.479,-1.212 -0.746,-1.804 -1.053,-2.329 -0.554,-5.07 1.256,-6.876 l 1.219,-1.221 c 2.613,-2.611 2.613,-6.853 0,-9.466 l -0.473,-0.473 c -2.613,-2.612 -6.852,-2.612 -9.465,0 l -1.219,1.221 c -1.809,1.809 -4.547,2.308 -6.877,1.258 -0.593,-0.268 -1.192,-0.516 -1.805,-0.747 -2.389,-0.903 -3.975,-3.196 -3.975,-5.748 v -1.729 c 0,-3.697 -2.996,-6.692 -6.689,-6.692 h -0.668 c -3.698,0 -6.696,2.995 -6.696,6.692 v 1.724 c 0,2.557 -1.581,4.85 -3.972,5.753 -0.609,0.231 -1.215,0.479 -1.805,0.747 -2.328,1.05 -5.069,0.551 -6.876,-1.256 l -1.22,-1.221 c -2.611,-2.614 -6.854,-2.613 -9.467,0.001 l -0.472,0.472 c -2.613,2.613 -2.613,6.853 0,9.465 l 1.219,1.22 c 1.806,1.806 2.31,4.547 1.257,6.876 -0.268,0.592 -0.517,1.194 -0.748,1.804 -0.903,2.391 -3.193,3.977 -5.748,3.977 h -1.727 c -3.695,-0.002 -6.691,2.997 -6.691,6.69 v 0.669 c 0,3.696 2.996,6.693 6.691,6.693 h 1.722 c 2.557,-10e-4 4.85,1.582 5.753,3.973 0.231,0.611 0.48,1.215 0.747,1.809 1.052,2.326 0.552,5.065 -1.255,6.871 l -1.219,1.224 c -2.613,2.609 -2.613,6.851 0,9.463 l 0.475,0.473 c 2.611,2.614 6.852,2.614 9.463,0 l 1.217,-1.219 c 1.807,-1.806 4.549,-2.308 6.877,-1.255 0.592,0.269 1.197,0.517 1.809,0.748 2.389,0.901 3.974,3.193 3.974,5.747 v 1.724 c 0,3.694 2.995,6.692 6.692,6.692 h 0.669 c 3.693,0 6.692,-2.994 6.692,-6.692 v -1.721 c 0,-2.556 1.582,-4.849 3.971,-5.752 0.612,-0.23 1.216,-0.479 1.809,-0.746 2.326,-1.053 5.068,-0.551 6.873,1.251 l 1.223,1.222 c 2.609,2.615 6.85,2.615 9.465,0 l 0.473,-0.475 c 2.611,-2.611 2.611,-6.851 0,-9.464 l -1.221,-1.22 c -1.805,-1.806 -2.307,-4.547 -1.256,-6.875 0.268,-0.59 0.518,-1.194 0.749,-1.805 0.901,-2.391 3.191,-3.976 5.747,-3.976 h 1.725 c 3.694,0.004 6.691,-2.995 6.695,-6.69 v -0.669 c 0,-3.697 -3,-6.693 -6.693,-6.693 z m -36.59,21.753 c -8.131,0 -14.723,-6.592 -14.723,-14.724 0,-8.132 6.592,-14.724 14.723,-14.724 8.133,0 14.725,6.592 14.725,14.724 0,8.132 -6.592,14.724 -14.725,14.724 z"
   id="path2"
   style="fill:#ff0000;fill-opacity:1" />
</g>
</svg>
