<?xml version="1.0" encoding="UTF-8" standalone="no"?>
<!-- Uploaded to: SVG Repo, www.svgrepo.com, Generator: SVG Repo Mixer Tools -->

<svg
   fill="#000000"
   width="32"
   height="32"
   viewBox="-0.5 0 0.76 0.76"
   class="cf-icon-svg"
   version="1.1"
   id="svg1"
   sodipodi:docname="dialog-svgrepo-com.svg"
   inkscape:version="1.3.2 (091e20e, 2023-11-25, custom)"
   xmlns:inkscape="http://www.inkscape.org/namespaces/inkscape"
   xmlns:sodipodi="http://sodipodi.sourceforge.net/DTD/sodipodi-0.dtd"
   xmlns="http://www.w3.org/2000/svg"
   xmlns:svg="http://www.w3.org/2000/svg">
  <defs
     id="defs1" />
  <sodipodi:namedview
     id="namedview1"
     pagecolor="#ffffff"
     bordercolor="#666666"
     borderopacity="1.0"
     inkscape:showpageshadow="2"
     inkscape:pageopacity="0.0"
     inkscape:pagecheckerboard="0"
     inkscape:deskcolor="#d1d1d1"
     showgrid="true"
     inkscape:zoom="39.78125"
     inkscape:cx="16"
     inkscape:cy="15.987431"
     inkscape:window-width="3840"
     inkscape:window-height="2054"
     inkscape:window-x="2869"
     inkscape:window-y="-11"
     inkscape:window-maximized="1"
     inkscape:current-layer="svg1" />
  <path
     d="m -0.2610193,0.29456803 v 0.13044675 l -0.0873791,0.0545342 c -0.008629,0.005364 -0.0156645,0.001477 -0.0156645,-0.008668 v -0.0539512 h -0.041474 A 0.01850198,0.01850198 0 0 1 -0.424,0.39846676 V 0.14340373 a 0.01850198,0.01850198 0 0 1 0.0184631,-0.0184631 h 0.36498658 a 0.01850198,0.01850198 0 0 1 0.0184631,0.0184631 v 0.0895947 h -0.17736249 a 0.06160849,0.06160849 0 0 0 -0.0615696,0.0615696 z m 0.4450193,0 V 0.54966994 A 0.01850198,0.01850198 0 0 1 0.1655369,0.56813304 H 0.1247626 v 0.0558169 c 0,0.010145 -0.006997,0.0140708 -0.0156645,0.008707 L 0.00784247,0.56945462 a 0.02098964,0.02098964 0 0 1 -0.00186576,-0.001322 h -0.2054264 A 0.01850198,0.01850198 0 0 1 -0.2179128,0.54966994 V 0.29456803 a 0.01854085,0.01854085 0 0 1 0.0184631,-0.0184631 H 0.16553689 A 0.01850198,0.01850198 0 0 1 0.184,0.29456803 Z"
     id="path1"
     style="fill:#00ff00;fill-opacity:1;stroke-width:0.0388697" />
</svg>
