<?xml version="1.0" encoding="UTF-8" standalone="no"?>
<!-- Uploaded to: SVG Repo, www.svgrepo.com, Generator: SVG Repo Mixer Tools -->

<svg
   width="32"
   height="32"
   viewBox="0 0 0.64 0.64"
   fill="none"
   version="1.1"
   id="svg1"
   sodipodi:docname="map-pin-svgrepo-com.svg"
   inkscape:version="1.3.2 (091e20e, 2023-11-25, custom)"
   xmlns:inkscape="http://www.inkscape.org/namespaces/inkscape"
   xmlns:sodipodi="http://sodipodi.sourceforge.net/DTD/sodipodi-0.dtd"
   xmlns="http://www.w3.org/2000/svg"
   xmlns:svg="http://www.w3.org/2000/svg">
  <defs
     id="defs1" />
  <sodipodi:namedview
     id="namedview1"
     pagecolor="#ffffff"
     bordercolor="#666666"
     borderopacity="1.0"
     inkscape:showpageshadow="2"
     inkscape:pageopacity="0.0"
     inkscape:pagecheckerboard="0"
     inkscape:deskcolor="#d1d1d1"
     inkscape:zoom="18.34"
     inkscape:cx="1.2268266"
     inkscape:cy="27.753544"
     inkscape:window-width="3840"
     inkscape:window-height="2054"
     inkscape:window-x="2869"
     inkscape:window-y="-11"
     inkscape:window-maximized="1"
     inkscape:current-layer="svg1" />
  <path
     fill-rule="evenodd"
     clip-rule="evenodd"
     d="M 0.17212544,0.3911552 0.32,0.576 0.4678752,0.3911552 C 0.4964384,0.35545216 0.512,0.31108928 0.512,0.26536512 V 0.256 C 0.512,0.14996128 0.4260384,0.064 0.32,0.064 0.21396128,0.064 0.128,0.14996128 0.128,0.256 v 0.009365 c 0,0.0457242 0.0155616,0.090087 0.0441254,0.1257902 z M 0.32,0.32 c 0.0353462,0 0.064,-0.0286538 0.064,-0.064 0,-0.0353462 -0.0286538,-0.064 -0.064,-0.064 -0.0353462,0 -0.064,0.0286538 -0.064,0.064 0,0.0353462 0.0286538,0.064 0.064,0.064 z"
     fill="#000000"
     id="path1"
     style="fill:#0000ff;fill-opacity:1;stroke-width:0.032" />
</svg>
